<svg xmlns="http://www.w3.org/2000/svg" xmlns:xlink="http://www.w3.org/1999/xlink" width="500" zoomAndPan="magnify" viewBox="0 0 375 374.999991" height="500" preserveAspectRatio="xMidYMid meet" version="1.0"><defs><clipPath id="283e991e71"><path d="M 74.4375 64 L 256 64 L 256 337.5 L 74.4375 337.5 Z M 74.4375 64 " clip-rule="nonzero"/></clipPath><clipPath id="152ae67196"><path d="M 135 37.5 L 300.9375 37.5 L 300.9375 301 L 135 301 Z M 135 37.5 " clip-rule="nonzero"/></clipPath></defs><g clip-path="url(#283e991e71)"><path fill="#7447e1" d="M 255.488281 315.601562 C 254.222656 316.4375 253.320312 317.128906 252.335938 317.679688 C 240.914062 324.289062 229.488281 330.890625 218.066406 337.488281 L 179.398438 315.148438 C 178.222656 314.414062 177.296875 313.839844 176.359375 313.296875 C 142.855469 293.941406 109.375 274.539062 75.816406 255.285156 C 75.375 255.027344 74.980469 254.765625 74.628906 254.496094 L 74.628906 83.523438 C 85.128906 77.464844 95.613281 71.398438 106.109375 65.34375 C 109.804688 63.207031 110.257812 63.488281 110.257812 67.828125 C 110.257812 121.015625 110.269531 174.210938 110.167969 227.410156 C 110.15625 230.460938 111.136719 232.042969 113.738281 233.546875 C 160.109375 260.246094 206.414062 287.046875 252.742188 313.839844 C 253.523438 314.289062 254.28125 314.820312 255.488281 315.601562 Z M 255.488281 315.601562 " fill-opacity="1" fill-rule="nonzero"/></g><g clip-path="url(#152ae67196)"><path fill="#7447e1" d="M 136.472656 173.21875 C 178.605469 197.554688 220.347656 221.667969 262.496094 245.996094 C 262.640625 244.742188 262.84375 243.863281 262.84375 242.96875 C 262.867188 235.195312 262.777344 227.421875 262.921875 219.65625 C 262.96875 217.25 261.984375 216.019531 260.019531 214.890625 C 221.941406 192.945312 183.996094 170.753906 145.726562 149.128906 C 138.484375 145.035156 135.453125 140.878906 135.691406 132.144531 C 136.4375 105.261719 135.996094 78.359375 135.90625 51.453125 C 135.894531 49.003906 136.574219 47.546875 138.789062 46.382812 C 143.21875 44.042969 147.566406 41.523438 151.792969 38.832031 C 153.882812 37.5 155.453125 37.535156 157.601562 38.777344 C 184.4375 54.394531 211.339844 69.917969 238.222656 85.453125 C 257.871094 96.8125 277.5 108.199219 297.207031 119.464844 C 299.445312 120.742188 300.414062 122.085938 300.382812 124.753906 C 300.234375 136.820312 300.324219 148.902344 300.300781 160.980469 C 300.300781 161.996094 300.1875 163.027344 300.078125 164.765625 C 257.78125 140.324219 215.972656 116.179688 173.488281 91.625 C 173.488281 98.132812 174.132812 103.996094 173.339844 109.667969 C 172.097656 118.503906 175.65625 122.980469 183.363281 127.308594 C 221.476562 148.699219 259.160156 170.867188 297.046875 192.6875 C 299.351562 194.019531 300.402344 195.34375 300.394531 198.199219 C 300.257812 227.613281 300.28125 257.015625 300.371094 286.425781 C 300.382812 289.046875 299.636719 290.527344 297.320312 291.75 C 292.878906 294.078125 288.550781 296.628906 284.300781 299.296875 C 282.289062 300.5625 280.730469 300.382812 278.742188 299.230469 C 232.03125 272.15625 185.273438 245.160156 138.585938 218.054688 C 137.386719 217.351562 136.078125 215.601562 136.054688 214.324219 C 135.871094 201.171875 135.953125 188.03125 135.972656 174.878906 C 136.007812 174.539062 136.1875 174.210938 136.472656 173.21875 Z M 136.472656 173.21875 " fill-opacity="1" fill-rule="nonzero"/></g></svg>